PathFileType	4	(X/Y/Z)	F:\MotionCapture\20160217\3\Generated_files\2_Test04-Dynamic.trc
DataRate	CameraRate	NumFrames	NumMarkers	Units	OrigDataRate	OrigDataStartFrame	OrigNumFrames
120.00	120.00	       7	39	mm	120.00	425	       849
Frame#	Time	Top.Head			Front.Head			Rear.Head			R.Shoulder			R.Offset			R.Elbow			R.Wrist			L.Shoulder			L.Elbow			L.Wrist			R.ASIS			L.ASIS			V.Sacral			R.Thigh			R.Knee			R.Shank			R.Ankle			R.Heel			R.Toe			L.Thigh			L.Knee			L.Shank			L.Ankle			L.Heel			L.Toe			R1			R2			R3			R4			R5			R6			R7			L1			L2			L3			L4			L5			L6			L7			V_Mid_ASIS			V_Pelvis_Origin			V_R.Hip_JC			V_L.Hip_JC			V_R.Knee_JC			V_L.Knee_JC			V_R.Ankle_JC			V_L.Ankle_JC			V_Mid_Hip			V_Mid_Shoulder			V_R.Hand			V_L.Hand			V_R.Toe_Offset_Static			V_L.Toe_Offset_Static			V_R.Toe_Offset			V_L.Toe_Offset			
		X1	Y1	Z1	X2	Y2	Z2	X3	Y3	Z3	X4	Y4	Z4	X5	Y5	Z5	X6	Y6	Z6	X7	Y7	Z7	X8	Y8	Z8	X9	Y9	Z9	X10	Y10	Z10	X11	Y11	Z11	X12	Y12	Z12	X13	Y13	Z13	X14	Y14	Z14	X15	Y15	Z15	X16	Y16	Z16	X17	Y17	Z17	X18	Y18	Z18	X19	Y19	Z19	X20	Y20	Z20	X21	Y21	Z21	X22	Y22	Z22	X23	Y23	Z23	X24	Y24	Z24	X25	Y25	Z25	X26	Y26	Z26	X27	Y27	Z27	X28	Y28	Z28	X29	Y29	Z29	X30	Y30	Z30	X31	Y31	Z31	X32	Y32	Z32	X33	Y33	Z33	X34	Y34	Z34	X35	Y35	Z35	X36	Y36	Z36	X37	Y37	Z37	X38	Y38	Z38	X39	Y39	Z39	

425	3.533	815.88544	146.42657	1686.59680	692.34326	148.62112	1622.66138	910.87524	139.40889	1599.96472	840.02008	342.31650	1381.08899	960.59625	66.37637	1238.93896	946.32013	451.36148	1084.01282	927.42395	466.22000	820.27295	789.60870	-61.93543	1379.06030	714.79694	-167.01895	1067.61121	501.60208	-114.58114	934.59863	753.07550	269.57932	906.32227	771.87854	-18.78716	909.75989	987.80396	146.89024	907.94611	617.07086	218.67743	592.80450	638.89630	277.53424	461.81119	552.97479	203.45496	247.82146	535.45319	276.93869	71.07795	590.25433	217.10878	26.24171	398.52539	253.36670	97.72849	817.11206	23.39427	569.78802	972.56519	-8.40279	443.54672	1013.50525	72.55117	308.54889	1199.08838	31.32391	97.58198	1261.40283	92.89112	103.87366	1072.95154	34.41060	40.78014	357.36719	235.26810	120.76494	394.40067	217.87202	106.01741	487.03503	185.16837	81.77982	552.79767	184.50710	42.73529	560.07538	259.61429	35.93906	485.83267	282.92163	54.62974	426.09814	291.34082	77.19563	1025.59326	58.33934	34.94053	1059.65137	72.21206	45.04398	1142.14893	115.82580	74.51080	1223.63965	122.19914	94.55182	1240.08472	50.70750	91.36780	1174.12061	20.58923	48.65197	1116.52246	4.00629	38.29963	
426	3.542	804.44275	148.29880	1685.87561	680.24829	149.91612	1622.33887	899.64398	140.96780	1599.14197	827.51678	344.53714	1380.15417	948.60291	68.48479	1237.84546	933.20251	452.87405	1082.58191	915.64984	467.03986	818.75403	777.93701	-60.19785	1378.32214	704.60120	-165.68649	1066.72900	491.70731	-113.76653	933.74982	739.74286	269.89792	906.20905	758.14722	-17.74926	908.23700	974.45709	149.24284	906.84058	603.88129	219.73790	592.17999	626.10095	278.70474	459.98465	543.97168	203.12553	245.52962	532.75745	277.60495	68.57054	586.89606	216.68834	30.81096	390.79559	254.06978	86.53339	803.54590	22.37281	568.52423	960.37793	-9.37074	442.63382	1004.29956	71.36408	308.31671	1196.31958	29.79026	102.29622	1258.21802	91.63211	111.57056	1072.16174	34.04671	40.82294	348.82071	234.22383	105.33842	383.32199	218.05727	94.64838	479.37866	185.22156	77.56884	548.54742	184.87781	44.51057	556.66791	258.61292	37.81949	480.09387	281.51321	50.96017	420.06061	292.17288	67.23540	1025.47632	58.55053	34.78230	1059.11572	71.65897	44.92278	1139.87292	114.49084	78.00523	1220.51440	120.97658	101.01647	1233.64539	53.29363	93.78410	1173.11072	19.32578	51.47356	1116.00208	3.14787	38.48052	
427	3.550	793.20746	149.88937	1685.98022	668.83032	151.39275	1622.55823	887.96979	142.92679	1598.76697	814.59186	346.69229	1379.53625	936.45850	70.68823	1237.02368	920.55280	454.64609	1081.20032	902.77496	468.10693	817.05597	767.17188	-58.51960	1378.21289	694.81854	-164.45284	1066.34619	481.83658	-113.24014	932.69330	726.06824	270.69839	906.49518	746.17285	-17.98934	907.58221	961.15125	150.98450	905.40723	591.81207	221.08252	591.34686	614.14160	279.54105	458.73584	535.97925	202.43245	245.18936				582.88989	215.81395	35.07972	384.39014	254.28214	79.10655	790.24573	21.74380	567.17499	947.32098	-10.56978	441.72614	994.83667	69.36005	308.40308	1192.55054	28.66438	107.90517	1249.33582	90.37140	120.56631	1072.53296	33.90277	40.28056	340.50369	238.14705	94.71320	376.74484	219.06900	86.74277	473.32681	184.56526	73.17768	543.57495	184.01810	43.41687	551.48785	258.88226	38.95197	474.39151	280.07309	44.40504	415.61652	293.21365	60.31516	1025.55847	58.66550	34.69286	1058.40210	71.46939	44.74715	1136.99536	113.10947	81.70300	1215.75537	118.97505	107.54563	1229.83594	51.77129	101.26711	1171.46289	18.09970	54.89770	1114.99255	3.07881	38.92249																																																	2599.31030	-739.62622	956.38226	498.98688	118.32243	17.71500	
428	3.558	781.26477	151.74817	1686.58362	656.89746	153.11232	1623.30396	876.32550	145.00305	1599.21130	802.17590	348.89780	1378.79504	924.35651	72.90958	1236.79663	906.82111	455.90817	1080.11816	888.94574	469.46814	816.44470	755.32422	-56.78098	1378.34631	685.08698	-163.29143	1065.72131	473.14951	-112.56022	931.32709	712.24194	271.69031	907.23090	731.51971	-15.93175	906.83057	948.17194	152.89194	905.07294	579.08215	222.29868	590.72821	602.33118	281.02802	460.15118	527.94904	202.34225	245.25844	518.67145	279.25198	72.73389	581.32404	216.49416	36.45094	379.95703	252.56897	71.82587	774.39447	21.09591	566.78619	933.93701	-11.84992	440.79376	984.11230	68.67975	307.55392	1188.07813	27.09917	113.84558	1244.40930	89.68225	129.73001	1071.55615	33.70857	40.12017	334.11108	233.75322	84.88151	371.83905	216.95148	79.10591	469.78745	184.59390	69.88721	540.26282	184.50699	43.22852	549.24493	259.52249	38.61660	471.43259	279.20993	41.88675	411.10562	291.32220	55.89564	1024.89685	59.21012	34.67798	1057.22803	71.44570	44.43938	1133.23425	111.78097	85.63419	1210.30579	117.73450	115.60713	1224.79395	50.77458	109.08727	1169.17786	17.34683	58.88698	1113.87476	3.26314	39.39590																																																	2589.59766	-737.27954	956.69019	272.45398	185.66072	130.61958	
429	3.567	770.31506	153.81046	1687.30566	645.96045	155.15564	1623.93860	864.75250	146.99185	1600.18030	789.23657	351.55515	1378.64722	912.32013	75.16653	1237.27515	892.53656	457.22845	1079.08325	875.23523	470.32855	815.30536	743.97858	-55.20415	1378.81250	675.95923	-162.11722	1065.59985	464.33026	-112.19135	929.69775	699.32800	272.60727	908.91296	718.22479	-14.67324	906.60370	934.61334	154.54886	904.66876	566.35046	224.54898	590.44946	590.42517	281.85104	463.87772	520.63165	202.34607	244.93323	514.60986	278.53986	71.63601	581.04822	217.23248	36.67278	376.54788	252.26225	64.41666	759.25366	20.61731	566.78430	917.86102	-14.16454	440.55417	972.97870	66.13068	308.03052	1182.35449	25.67543	120.74909	1237.61133	88.39965	139.52245	1070.74744	33.56982	40.00318	330.26874	231.75745	75.78825	368.57550	216.58638	71.79704	467.22772	184.86644	67.58357	540.24390	186.31285	44.54070	547.44165	259.60852	38.79486	471.08310	281.64307	41.14853	407.92938	289.63812	50.14385	1025.30676	58.86430	34.54168	1056.16663	71.29400	44.39722	1128.18298	110.16410	90.28961	1204.05066	115.17577	123.24233	1222.49097	46.14201	120.50304	1166.00232	16.59484	63.49783	1112.52161	3.45611	40.07735																																																	445.29657	148.35899	24.19525	
430	3.575	758.10156	155.64407	1688.25537	633.84979	157.19583	1625.46729	852.98566	149.08813	1601.08350	776.63171	353.84076	1378.71448	900.22681	77.29984	1238.17212	878.34619	458.98804	1078.66309	861.17303	471.14856	814.99628	732.80042	-53.74335	1379.60889	667.45111	-160.91312	1065.98889	456.84473	-111.85600	928.01056	685.38916	274.15271	911.24738	703.87695	-12.44571	906.31982	921.31073	155.68828	904.75745	553.56964	227.28539	591.86176	577.89557	281.86163	466.56128	514.17902	202.68866	244.17862	513.46539	278.56348	68.91754	578.07678	219.36041	37.16533	373.85956	251.21138	57.82596	744.15222	21.23305	566.60114	901.38458	-16.19580	440.53531	958.94159	63.65369	309.04611	1175.70105	24.45325	128.07639	1228.57019	87.26953	149.94165	1067.86633	32.91955	41.31823	328.10715	233.29405	67.21896	366.22424	215.11038	65.10539	465.64594	184.93431	65.20574	539.43048	186.00676	43.92036	546.41693	260.57086	39.01574	468.90756	282.64996	38.03055	406.24670	290.29556	43.73323	1025.42822	59.02362	34.59566	1054.88489	70.91102	44.30859	1122.02539	108.97580	94.78864	1195.29102	114.82374	132.69220	1214.26001	45.98969	128.74753	1162.18188	15.85113	68.86678	1111.10071	3.99279	41.10279																																																	437.10635	151.33337	22.52036	174.53409	104.79059	1452.39124	
431	3.583	746.74316	157.57117	1689.97266	622.15717	158.45082	1627.05005	840.98547	151.32114	1602.17480	763.85388	355.71564	1379.47351	887.93341	79.07504	1239.14673	863.72455	460.12308	1078.76245	847.02509	471.98978	814.86523	720.41547	-52.13933	1381.29053	659.12238	-159.65102	1066.80176	449.58664	-112.08144	926.41162	672.10492	275.45868	913.89612	690.64600	-10.59966	907.26160	907.69055	156.49979	905.42700	541.17297	229.24326	593.93530	564.78845	281.96439	467.34747	508.26758	202.92441	243.15535	511.28363	278.49606	64.94601	577.79987	219.49167	40.18603	371.61917	250.84113	52.90492	726.46729	20.90299	567.17023	884.31116	-18.34405	439.85019	944.02563	60.46618	309.69125	1167.34058	22.86011	136.04141	1219.83630	86.16969	160.12291	1068.34766	33.48418	40.20523	325.21347	231.86015	59.84875	363.64877	214.78784	59.55679	462.96133	184.73666	63.14219	537.50446	186.28482	44.00557	544.97284	261.08466	39.21043	467.70694	282.87994	36.93680	404.10095	291.09244	39.66542	1025.70251	59.27057	34.52531	1054.42383	72.37093	43.60492	1115.27808	107.05899	99.35810	1184.92944	112.84146	142.00078	1201.88477	47.93996	137.64206	1157.72485	14.90732	74.58269	1109.33020	4.55643	43.04546																																																	1088.32495	91.16295	61.32866	385.60217	190.41623	38.08434	1104.32678	9.43418	173.54367	954.38623	51.40517	47.96261	
